<?xml version="1.0" encoding="utf-8"?>
<!-- Generator: Adobe Illustrator 24.1.2, SVG Export Plug-In . SVG Version: 6.00 Build 0)  -->
<svg version="1.1" id="圖層_1" xmlns="http://www.w3.org/2000/svg" xmlns:xlink="http://www.w3.org/1999/xlink" x="0px" y="0px"
	 viewBox="0 0 80 60" style="enable-background:new 0 0 80 60;" xml:space="preserve">
<style type="text/css">
	.st0{fill:#555555;}
	.st1{fill:#F1F1F1;}
</style>
<g>
	<path class="st0" d="M73.1,52.1H6.8c-1.1,0-2.1-0.9-2.1-2.1V17.6c0-1.1,0.9-2.1,2.1-2.1h66.3c1.1,0,2.1,0.9,2.1,2.1v32.5
		C75.2,51.2,74.2,52.1,73.1,52.1z"/>
	<path class="st1" d="M71.9,50.4H8c-0.7,0-1.3-0.6-1.3-1.3V18.8c0-0.7,0.6-1.3,1.3-1.3h63.9c0.7,0,1.3,0.6,1.3,1.3v30.3
		C73.2,49.8,72.6,50.4,71.9,50.4z"/>
	<path class="st0" d="M45,23.8h14.5c0.6,0,1.1,0.5,1.1,1.1v14.5c0,0.6-0.5,1.1-1.1,1.1H45c-0.6,0-1.1-0.5-1.1-1.1V25
		C44,24.4,44.5,23.8,45,23.8z"/>
	<circle class="st1" cx="37.5" cy="34.6" r="9.5"/>
	<path class="st0" d="M37.5,44.6c-5.5,0-10-4.5-10-10s4.5-10,10-10s10,4.5,10,10S43,44.6,37.5,44.6z M37.5,25.7
		c-4.9,0-8.9,4-8.9,8.9s4,8.9,8.9,8.9s8.9-4,8.9-8.9C46.5,29.7,42.5,25.7,37.5,25.7L37.5,25.7z"/>
	<polygon class="st0" points="26.1,28 30.8,36.1 35.5,44.2 26.1,44.2 16.8,44.2 21.4,36.1 	"/>
	<rect x="6" y="32.6" class="st0" width="67.6" height="0.8"/>
	<rect x="40" y="17.2" class="st0" width="0.8" height="34"/>
</g>
</svg>
