<?xml version="1.0" encoding="utf-8"?>
<!-- Generator: Adobe Illustrator 26.0.3, SVG Export Plug-In . SVG Version: 6.00 Build 0)  -->
<svg version="1.1" id="a" xmlns="http://www.w3.org/2000/svg" xmlns:xlink="http://www.w3.org/1999/xlink" x="0px" y="0px"
	 viewBox="0 0 162 100" style="enable-background:new 0 0 162 100;" xml:space="preserve">
<style type="text/css">
	.st0{fill:#ECECEB;stroke:#040000;stroke-linecap:square;stroke-linejoin:round;}
	.st1{fill:#FFFFFF;stroke:#040000;stroke-linecap:square;stroke-linejoin:round;}
	.st2{fill:#040000;}
	.st3{fill-rule:evenodd;clip-rule:evenodd;fill:#040000;}
	.st4{fill:none;stroke:#76C2BD;stroke-linecap:square;stroke-linejoin:round;}
</style>
<path class="st0" d="M130.3,26.2v44.6c0,4.1-3.3,7.5-7.5,7.5H40.2c-4.1,0-7.5-3.3-7.5-7.5V26.2c0-4.1,3.3-7.5,7.5-7.5h82.6
	C126.9,18.8,130.3,22.1,130.3,26.2z"/>
<path class="st1" d="M44.6,23.6h73.9c3,0,5.4,2.4,5.4,5.4v39c0,3-2.4,5.4-5.4,5.4H44.6c-3,0-5.4-2.4-5.4-5.4V29
	C39.2,26,41.6,23.6,44.6,23.6z"/>
<path class="st0" d="M50.1,27.9h62.8c2.8,0,5,2.3,5,5v31.2c0,2.8-2.3,5-5,5H50.1c-2.8,0-5-2.3-5-5V32.9C45,30.1,47.3,27.9,50.1,27.9
	z"/>
<path class="st2" d="M49.2,78.2h64.7c0,2.4-1.9,4.3-4.3,4.3h-56C51.1,82.5,49.2,80.6,49.2,78.2L49.2,78.2z"/>
<path class="st3" d="M81.5,55.6c-6.1,0-11-5-11-11s5-11,11-11c6.1,0,11,5,11,11S87.6,55.6,81.5,55.6z"/>
<path class="st4" d="M81.5,57.8c-7.3,0-13.3-5.9-13.3-13.3s5.9-13.3,13.3-13.3c7.3,0,13.3,5.9,13.3,13.3S88.8,57.8,81.5,57.8z"/>
<circle class="st0" cx="81.5" cy="44.5" r="6.9"/>
</svg>
