<?xml version="1.0" encoding="utf-8"?>
<!-- Generator: Adobe Illustrator 26.0.3, SVG Export Plug-In . SVG Version: 6.00 Build 0)  -->
<svg version="1.1" id="a" xmlns="http://www.w3.org/2000/svg" xmlns:xlink="http://www.w3.org/1999/xlink" x="0px" y="0px"
	 viewBox="0 0 162 100" style="enable-background:new 0 0 162 100;" xml:space="preserve">
<style type="text/css">
	.st0{fill:#76C2BD;}
	.st1{fill:#F1F1F1;stroke:#010101;stroke-linecap:round;stroke-linejoin:round;}
	.st2{fill:#FFFFFF;}
	.st3{fill:none;stroke:#000000;stroke-linecap:square;stroke-linejoin:round;}
</style>
<g>
	<rect x="54.6" y="78.2" class="st0" width="52.8" height="3.3"/>
	<rect x="53.8" y="65.2" class="st0" width="3.3" height="29.2"/>
	<rect x="104.9" y="65.2" class="st0" width="3.3" height="29.2"/>
</g>
<path class="st1" d="M43.8,11.3h74.4c3.2,0,5.8,2.6,5.8,5.8V60c0,3.2-2.6,5.8-5.8,5.8H43.8c-3.2,0-5.8-2.6-5.8-5.8V17.1
	C38,13.9,40.6,11.3,43.8,11.3z"/>
<g>
	<path class="st2" d="M81,16.4c-1.2,0-2.3-0.5-3.2-1.4l-0.2-0.2h-5.5c-1.6,0-2.9-1.3-2.9-2.9S70.5,9,72.1,9h5.5l0.2-0.2
		c0.8-0.9,2-1.4,3.2-1.4s2.3,0.5,3.2,1.4L84.3,9h5.5c1.6,0,2.9,1.3,2.9,2.9s-1.3,2.9-2.9,2.9h-5.5L84.1,15
		C83.3,15.9,82.2,16.4,81,16.4z"/>
	<path d="M81,8c1.1,0,2.1,0.4,2.8,1.2l0.3,0.3h5.7c1.3,0,2.4,1.1,2.4,2.4s-1.1,2.4-2.4,2.4h-5.7l-0.3,0.3C83,15.4,82,15.8,81,15.8
		s-2.1-0.4-2.8-1.2l-0.3-0.3h-5.7c-1.3,0-2.4-1.1-2.4-2.4s1.1-2.4,2.4-2.4h5.7l0.3-0.3C78.9,8.4,79.9,8,81,8 M81,7
		c-1.4,0-2.7,0.6-3.6,1.5h-5.3c-1.9,0-3.4,1.5-3.4,3.4s1.5,3.4,3.4,3.4h5.3c0.9,0.9,2.2,1.5,3.6,1.5s2.7-0.6,3.6-1.5h5.3
		c1.9,0,3.4-1.5,3.4-3.4s-1.5-3.4-3.4-3.4h-5.3C83.6,7.6,82.4,7,81,7L81,7z"/>
</g>
<circle class="st0" cx="81" cy="12" r="2.6"/>
<line class="st3" x1="64" y1="50.3" x2="98" y2="27.3"/>
</svg>
