<?xml version="1.0" encoding="utf-8"?>
<!-- Generator: Adobe Illustrator 26.0.3, SVG Export Plug-In . SVG Version: 6.00 Build 0)  -->
<svg version="1.1" id="a" xmlns="http://www.w3.org/2000/svg" xmlns:xlink="http://www.w3.org/1999/xlink" x="0px" y="0px"
	 viewBox="0 0 162 100" style="enable-background:new 0 0 162 100;" xml:space="preserve">
<style type="text/css">
	.st0{fill:#F1F1F1;}
	.st1{fill:#010101;}
	.st2{fill:#76C2BD;stroke:#76C2BD;stroke-miterlimit:10;}
	.st3{fill:none;stroke:#010101;stroke-width:0.95;stroke-linecap:round;stroke-linejoin:round;}
	.st4{fill:none;stroke:#010101;stroke-width:0.95;stroke-linecap:square;stroke-linejoin:round;}
</style>
<g>
	<path class="st0" d="M29.7,19.8h101.9c1.7,0,3.1,1.4,3.1,3.1V77c0,1.7-1.4,3.1-3.1,3.1H29.7c-1.7,0-3.1-1.4-3.1-3.1V23
		C26.6,21.2,28,19.8,29.7,19.8z"/>
	<path class="st1" d="M72.5,54.1l5.4,7.2l8.5-10.7c0.7-0.8,1.9-0.8,2.6,0l9.8,12.2c0.9,1.1,0.1,2.7-1.3,2.7H64.6
		c-1.3,0-2.1-1.6-1.3-2.7l6.6-8.8C70.5,53.2,71.9,53.2,72.5,54.1L72.5,54.1z"/>
	<circle class="st2" cx="68.2" cy="39.4" r="5"/>
	<path class="st3" d="M132,80.2H29.9c-1.9,0-3.4-1.5-3.4-3.3V23.2c0-1.9,1.5-3.3,3.4-3.3H132c1.9,0,3.4,1.5,3.4,3.3v53.7
		C135.4,78.7,133.9,80.2,132,80.2z"/>
	<line class="st4" x1="93.8" y1="50" x2="135.4" y2="50"/>
	<line class="st4" x1="26.6" y1="50" x2="73.8" y2="50"/>
	<line class="st4" x1="81" y1="69.6" x2="81" y2="80.2"/>
	<line class="st4" x1="81" y1="19.8" x2="81" y2="53.8"/>
</g>
</svg>
