<?xml version="1.0" encoding="utf-8"?>
<!-- Generator: Adobe Illustrator 26.0.3, SVG Export Plug-In . SVG Version: 6.00 Build 0)  -->
<svg version="1.1" id="a" xmlns="http://www.w3.org/2000/svg" xmlns:xlink="http://www.w3.org/1999/xlink" x="0px" y="0px"
	 viewBox="0 0 162 100" style="enable-background:new 0 0 162 100;" xml:space="preserve">
<style type="text/css">
	.st0{fill:#F1F1F1;stroke:#010101;stroke-linecap:round;stroke-linejoin:round;}
	.st1{fill:#FFFFFF;stroke:#010101;stroke-miterlimit:10;}
	.st2{fill:none;stroke:#76C2BD;stroke-linecap:square;stroke-linejoin:round;}
</style>
<g>
	<path class="st0" d="M101.4,64.9l-1.4,3.2c-0.2,0.5-0.8,0.9-1.4,0.8H98c-0.7-0.3-1.1-1.2-0.7-1.9l0,0l1.4-3.3
		c-0.4-0.5-0.6-1.1-0.5-1.8c0-0.4,0.1-0.7,0.2-1.1l15.1-34.3c-0.3,0-0.6-0.1-0.9-0.1H47c-3.4,0-6.2,2.8-6.2,6.2v42.3
		c0,3.4,2.8,6.2,6.2,6.2h65.7c3.4,0,6.2-2.8,6.2-6.2V32.7c0-0.9-0.2-1.7-0.5-2.5l-14.6,33.1C103.3,64.2,102.4,64.8,101.4,64.9
		L101.4,64.9z"/>
	<path class="st1" d="M118.3,30.2l8.5-19.2c0,0,0-0.1,0.1-0.1c0.6-1.5-0.1-3.1-1.6-3.7s-3.1,0.1-3.7,1.6l-7.9,17.9"/>
	<path class="st1" d="M113.6,26.6L98.5,60.9c-0.2,0.3-0.2,0.7-0.2,1.1c0,0.7,0.2,1.3,0.5,1.8"/>
	<path class="st1" d="M101.4,64.9c1-0.1,1.9-0.7,2.3-1.7l14.6-33.1"/>
	<path class="st1" d="M98.7,63.7L97.3,67l0,0c-0.3,0.7,0,1.6,0.7,1.9l0.5,0.1c0.6,0,1.1-0.3,1.4-0.8l1.4-3.2c-0.1,0-0.3,0-0.4,0
		C100,64.9,99.2,64.4,98.7,63.7z"/>
	<path class="st1" d="M98.7,63.7c0.5,0.7,1.3,1.2,2.2,1.2c0.1,0,0.3,0,0.4,0"/>
</g>
<path class="st2" d="M46.1,53.8c27.9-16.3,28.5,27.3,52,15.1"/>
</svg>
