<svg id="Layer_1" data-name="Layer 1" xmlns="http://www.w3.org/2000/svg" viewBox="0 0 85.04 85.04"><defs><style>.cls-1{fill:#404041;}.cls-2{fill:#415695;}</style></defs><path class="cls-1" d="M40.93,41.15H31.86a.51.51,0,0,1-.5-.5.5.5,0,0,1,.5-.5h9.07a.5.5,0,0,1,.5.5A.51.51,0,0,1,40.93,41.15Z"/><path class="cls-1" d="M44.48,46.3H31.86a.51.51,0,0,1-.5-.5.5.5,0,0,1,.5-.5H44.48a.5.5,0,0,1,.5.5A.5.5,0,0,1,44.48,46.3Z"/><path class="cls-1" d="M45.76,30.84H31.86a.5.5,0,0,1-.5-.5.51.51,0,0,1,.5-.5h13.9a.5.5,0,0,1,.5.5A.5.5,0,0,1,45.76,30.84Z"/><path class="cls-1" d="M42.74,36H31.86a.5.5,0,0,1-.5-.5.51.51,0,0,1,.5-.5H42.74a.51.51,0,0,1,.5.5A.5.5,0,0,1,42.74,36Z"/><path class="cls-2" d="M55.69,46.93a8.65,8.65,0,1,1,8.65-8.65A8.66,8.66,0,0,1,55.69,46.93Zm0-16.29a7.65,7.65,0,1,0,7.65,7.64A7.65,7.65,0,0,0,55.69,30.64Z"/><path class="cls-2" d="M61.45,44.54a.5.5,0,0,1-.35-.15l-5.76-5.76a.51.51,0,0,1-.15-.35V30.14a.5.5,0,0,1,.5-.5.5.5,0,0,1,.5.5v7.93l5.62,5.62a.5.5,0,0,1,0,.7A.51.51,0,0,1,61.45,44.54Z"/><path class="cls-1" d="M22.31,49.1a5.37,5.37,0,1,1,5.37-5.37A5.38,5.38,0,0,1,22.31,49.1Zm0-9.74a4.37,4.37,0,1,0,4.37,4.37A4.37,4.37,0,0,0,22.31,39.36Z"/><path class="cls-1" d="M28.39,67.35a.51.51,0,0,1-.5-.5V57.11a2.94,2.94,0,0,1,2.94-2.93h9.73a1.94,1.94,0,0,0,0-3.87H22.31c-5.4,0-8,2.23-8,6.8v9.74a.5.5,0,0,1-.5.5.51.51,0,0,1-.5-.5V57.11c0-5.17,3-7.8,9-7.8H40.56a2.94,2.94,0,0,1,0,5.87H30.83a1.94,1.94,0,0,0-1.94,1.93v9.74A.5.5,0,0,1,28.39,67.35Z"/><path class="cls-1" d="M71.25,23.8H24.36a.5.5,0,0,0-.5.5V37.37a.5.5,0,0,0,.5.5.5.5,0,0,0,.5-.5V24.8H70.75V53H44.46a.5.5,0,0,0-.5.5.5.5,0,0,0,.5.5h2.88a.58.58,0,0,0,0,.19v12.8H43a.5.5,0,0,0-.5.5.51.51,0,0,0,.5.5h9.55a.51.51,0,0,0,.5-.5.5.5,0,0,0-.5-.5H48.3V54.14a.58.58,0,0,0,0-.19h23a.5.5,0,0,0,.5-.5V24.3A.5.5,0,0,0,71.25,23.8Z"/></svg>
