<?xml version="1.0" encoding="utf-8"?>
<!-- Generator: Adobe Illustrator 26.0.3, SVG Export Plug-In . SVG Version: 6.00 Build 0)  -->
<svg version="1.1" id="圖層_1" xmlns="http://www.w3.org/2000/svg" xmlns:xlink="http://www.w3.org/1999/xlink" x="0px" y="0px"
	 viewBox="0 0 96.1 22.1" style="enable-background:new 0 0 96.1 22.1;" xml:space="preserve">
<style type="text/css">
	.st0{fill:#BA1E28;stroke:#090103;stroke-width:1.19;stroke-linecap:round;stroke-linejoin:round;}
	.st1{fill:#BA1E28;}
</style>
<path class="st0" d="M68.8,13.2"/>
<path class="st0" d="M73.8,13"/>
<path class="st0" d="M73.8,13"/>
<path class="st0" d="M68.8,13.2"/>
<path class="st1" d="M10.3,11.5c0-0.8,0-1.6,0-2.2h1.8l0.1,0.9h0c0.4-0.7,1.2-1.1,2-1.1c0.8,0,1.5,0.4,1.8,1.1l0,0
	c0.2-0.3,0.5-0.6,0.9-0.8c0.4-0.2,0.9-0.4,1.3-0.3c1.3,0,2.3,0.9,2.3,2.9v4h-2v-3.7c0-1-0.3-1.5-1-1.5c-0.5,0-0.9,0.3-1,0.7
	c-0.1,0.2-0.1,0.4-0.1,0.5v4h-2v-3.8c0-0.9-0.3-1.4-1-1.4c-0.5,0-0.9,0.3-1,0.8c-0.1,0.2-0.1,0.4-0.1,0.5v3.9h-1.9v-4.6H10.3z"/>
<path class="st1" d="M22.8,9.3l1,3.3c0.1,0.4,0.2,0.9,0.3,1.3l0,0c0.1-0.4,0.2-0.9,0.3-1.3l0.8-3.3h2.2L26,13.8
	c-1,2.7-1.6,3.8-2.4,4.4c-0.6,0.5-1.3,0.8-2,0.9l-0.4-1.8c0.3-0.1,0.6-0.2,0.9-0.4c0.4-0.2,0.7-0.5,0.9-0.8C23,16.1,23,16,23,15.9
	c0-0.1,0-0.2-0.1-0.4l-2.5-6.2H22.8z"/>
<path class="st1" d="M30,16.1l-3-9.3h2.3l1.1,3.9c0.3,1.1,0.6,2.2,0.8,3.3l0,0c0.2-1.1,0.5-2.2,0.8-3.3l1.2-4h2.2l-3.1,9.3L30,16.1z
	"/>
<path class="st1" d="M38.2,7.5c0,0.6-0.5,1.1-1.1,1.1c0,0,0,0,0,0h-0.1c-0.5,0.1-1-0.4-1.1-0.9c0,0,0,0,0,0V7.5c0-0.6,0.4-1,0.9-1.1
	c0,0,0,0,0,0h0.2c0.5-0.1,1,0.3,1.1,0.9c0,0,0,0,0,0C38.2,7.3,38.2,7.4,38.2,7.5z"/>
<rect x="36.1" y="9.4" class="st1" width="2.1" height="6.8"/>
<path class="st1" d="M45.2,12.6c0-1.7-0.8-3.4-3-3.4c-1.9,0-3.4,1.5-3.4,3.4c0,0,0,0,0,0c0,0.1,0,0.2,0,0.2c0,2.1,1.3,3.4,3.6,3.4
	c0.8,0,1.7-0.1,2.4-0.4l-0.3-1.4c-0.6,0.2-1.2,0.3-1.9,0.3c-1,0-1.8-0.4-1.9-1.3h4.4C45.2,13.1,45.2,12.9,45.2,12.6L45.2,12.6z
	 M40.8,12c0-0.7,0.6-1.3,1.3-1.3c0.7,0,1.2,0.6,1.2,1.2c0,0,0,0,0,0c0,0,0,0.1,0,0.1L40.8,12z"/>
<path class="st1" d="M47.2,9.3l0.5,2.8c0.1,0.7,0.3,1.5,0.4,2.2l0,0c0.1-0.8,0.3-1.5,0.5-2.2l0.7-2.8H51l0.7,2.7
	c0.2,0.8,0.4,1.5,0.5,2.3l0,0c0.1-0.8,0.2-1.5,0.4-2.3l0.6-2.7h2.1l-2.1,6.8h-1.9l-0.6-2.4c-0.2-0.7-0.3-1.3-0.4-2.1l0,0
	c-0.1,0.7-0.2,1.4-0.4,2.1L49,16.1h-2l-2-6.8H47.2z"/>
<path class="st1" d="M60.7,11.1L60.7,11.1c0.9-0.3,1.5-1.1,1.5-2c0-0.8-0.4-1.5-1.1-1.8c-0.8-0.4-1.8-0.6-2.8-0.5
	c-0.9,0-1.8,0.1-2.7,0.2v9.2c0.8,0.1,1.5,0.1,2.3,0.1c1.3,0.1,2.6-0.2,3.7-0.9c0.6-0.5,1-1.2,1-2C62.5,12.3,61.8,11.4,60.7,11.1
	L60.7,11.1z M57.7,8.3c0.3,0,0.6-0.1,0.9-0.1c1,0,1.5,0.4,1.5,1.1s-0.6,1.1-1.7,1.1h-0.7V8.3z M58.5,14.6c-0.3,0-0.5,0-0.8,0V12h0.7
	c1,0,1.9,0.4,1.9,1.3S59.5,14.6,58.5,14.6z"/>
<path class="st1" d="M66.5,9.2c-1.9-0.1-3.5,1.3-3.6,3.1c0,0.2,0,0.3,0,0.5c-0.1,1.8,1.3,3.4,3.1,3.5c0,0,0,0,0,0h0.4
	c1.9,0.1,3.5-1.3,3.6-3.2c0-0.1,0-0.3,0-0.4c0.1-1.8-1.3-3.3-3.1-3.4c0,0,0,0,0,0L66.5,9.2z M66.4,14.8c-0.9,0-1.4-0.9-1.4-2
	s0.4-2,1.4-2s1.3,1,1.3,2C67.8,13.9,67.2,14.8,66.4,14.8z"/>
<path class="st1" d="M76.2,14.5v-2.4c0.2-1.4-0.8-2.8-2.3-2.9c-0.2,0-0.5,0-0.7,0c-0.9,0-1.8,0.2-2.6,0.6l0.4,1.4
	c0.6-0.3,1.2-0.5,1.9-0.5c1,0,1.2,0.5,1.2,0.9v0.1c-2.4,0-4,0.8-4,2.6c0,1.1,0.9,2,2,2.1h0.1c0.8,0,1.5-0.3,2-0.9l0,0l0.1,0.7h1.9
	C76.2,15.6,76.1,15,76.2,14.5L76.2,14.5z M74.2,13.7c0,0.1,0,0.2,0,0.4c-0.2,0.5-0.6,0.8-1.1,0.8c-0.4,0-0.8-0.3-0.8-0.7V14
	c0-0.8,0.9-1.1,2-1.1L74.2,13.7L74.2,13.7z"/>
<path class="st1" d="M77.2,11.6c0-1,0-1.6,0-2.2H79l0.1,1.2l0,0c0.3-1,1.3-1.6,2.3-1.4v2c-0.2,0-0.4-0.1-0.6-0.1
	c-0.7-0.1-1.3,0.4-1.4,1.1c0,0.2,0,0.3,0,0.5v3.4h-2.1L77.2,11.6z"/>
<path class="st1" d="M88.2,14.1V6.3h-2.1V10l0,0c-0.4-0.5-1.1-0.8-1.8-0.8c-1.6,0-3,1.3-3,3.6c0,2.1,1.3,3.5,2.9,3.5
	c0.8,0,1.6-0.4,2-1.1l0,0l0.1,1h1.9L88.2,14.1L88.2,14.1z M86.1,13.1c0,0.2,0,0.3-0.1,0.5c-0.1,0.6-0.6,1-1.2,1
	c-0.9,0-1.4-0.7-1.4-1.9s0.5-1.9,1.4-1.9c0.6,0,1.1,0.4,1.2,1c0,0.1,0,0.3,0,0.4L86.1,13.1L86.1,13.1z"/>
<path class="st1" d="M92.2,6.7c-0.1-0.2-0.3-0.4-0.6-0.6C91.4,6,91.2,6,90.9,6c-0.3,0-0.5,0.1-0.8,0.2c-0.2,0.1-0.4,0.3-0.6,0.6
	c-0.1,0.2-0.2,0.5-0.2,0.8c0,0.3,0.1,0.5,0.2,0.8c0.1,0.2,0.3,0.4,0.6,0.6C90.4,8.9,90.6,9,90.9,9c0.3,0,0.5-0.1,0.8-0.2
	C92.4,8.4,92.7,7.4,92.2,6.7z M92,8.1c-0.3,0.6-1.1,0.8-1.7,0.5c-0.4-0.2-0.6-0.6-0.6-1.1c0-0.2,0.1-0.4,0.2-0.6
	c0.1-0.2,0.3-0.4,0.5-0.5c0.4-0.2,0.9-0.2,1.2,0c0.2,0.1,0.3,0.3,0.4,0.4c0.1,0.2,0.2,0.4,0.2,0.6C92.2,7.7,92.1,7.9,92,8.1L92,8.1z
	"/>
<path class="st1" d="M91.2,7.6c0.2-0.1,0.3-0.3,0.3-0.5c0-0.2-0.1-0.3-0.2-0.4c-0.2-0.1-0.3-0.2-0.5-0.1h-0.5v1.9h0.5V7.8h0.1
	l0.4,0.7h0.5L91.2,7.6z M91,7.4c-0.1,0-0.1,0.1-0.2,0.1h-0.1V6.9h0.1c0.1,0,0.1,0,0.2,0.1C91.1,7.1,91.1,7.3,91,7.4z"/>
<path class="st1" d="M8,19.5c-2.5,0-4.6-2.1-4.6-4.6c0-1.5,0.8-2.9,2-3.8c-0.1-0.4-0.1-0.9-0.1-1.4c0-3.1,2.5-5.6,5.6-5.6
	c0.4,0,0.8,0,1.2,0.1c2.1-2.5,5.8-2.9,8.3-0.9c1.4,1.1,2.2,2.8,2.2,4.6h-2c0-2.2-1.7-4-3.9-4.1c-1.4,0-2.8,0.7-3.5,1.9l-0.4,0.6
	l-0.7-0.2C11.7,6.1,11.3,6,10.9,6C8.8,6,7.1,7.7,7.1,9.8l0,0c0,0.5,0.1,1,0.3,1.5l0.4,0.9l-0.8,0.4c-1.4,0.6-2,2.2-1.4,3.6
	C6,17,6.9,17.6,8,17.6h8.5v1.9L8,19.5L8,19.5z"/>
</svg>
