<?xml version="1.0" encoding="utf-8"?>
<!-- Generator: Adobe Illustrator 24.1.2, SVG Export Plug-In . SVG Version: 6.00 Build 0)  -->
<svg version="1.1" id="圖層_1" xmlns="http://www.w3.org/2000/svg" xmlns:xlink="http://www.w3.org/1999/xlink" x="0px" y="0px"
	 viewBox="0 0 80 60" style="enable-background:new 0 0 80 60;" xml:space="preserve">
<style type="text/css">
	.st0{clip-path:url(#SVGID_2_);}
	.st1{fill:#545555;}
	.st2{fill:#FFFFFF;}
</style>
<g>
	<g>
		<g>
			<defs>
				<rect id="SVGID_1_" x="13.6" y="8.8" width="52.8" height="42.9"/>
			</defs>
			<clipPath id="SVGID_2_">
				<use xlink:href="#SVGID_1_"  style="overflow:visible;"/>
			</clipPath>
			<g class="st0">
				<path class="st1" d="M59.9,28.9c3.6-6.7,1-15-5.6-18.6C47.8,6.8,39.9,9,36,15.2c-1.4-0.5-2.9-0.8-4.4-0.8
					c-7.2,0-12.9,5.8-12.9,12.9c0,1.7,0.4,3.3,1,5c-5.1,2.2-7.6,8.2-5.3,13.3c1.7,3.7,5.3,6.2,9.4,6.2h30.5
					c6.7,0,12.2-5.4,12.2-12.2C66.4,35,63.8,30.9,59.9,28.9"/>
				<path class="st2" d="M24.9,29.5c0-1.7,0-2.9-0.1-4.1h3.3l0.3,1.8h0.1c0.9-1.3,2.3-2.1,3.8-2.1c1.5-0.1,2.9,0.8,3.6,2.2l0,0
					c0.4-0.6,1-1.2,1.7-1.5c0.8-0.4,1.5-0.6,2.4-0.6c2.4,0,4.4,1.8,4.4,5.6v7.4h-3.8v-7c0-1.9-0.6-2.9-1.9-2.9
					c-0.9,0-1.7,0.5-1.8,1.4c-0.1,0.4-0.1,0.6-0.1,1v7.6h-3.8V31c0-1.7-0.6-2.7-1.8-2.7c-0.9,0-1.7,0.6-1.9,1.4
					c-0.1,0.4-0.1,0.6-0.1,1v7.4h-3.8L24.9,29.5z"/>
				<path class="st2" d="M48.7,25.4l1.9,6.4c0.3,0.8,0.5,1.7,0.6,2.4h0.1c0.1-0.6,0.4-1.7,0.6-2.4l1.5-6.3h4.2l-2.9,8.6
					c-1.8,5.1-3.1,7.2-4.5,8.5c-1,0.9-2.4,1.5-3.8,1.8l-0.9-3.5c0.6-0.1,1.2-0.4,1.8-0.6c0.6-0.4,1.3-0.9,1.7-1.7
					c0.1-0.1,0.3-0.4,0.3-0.6c0-0.3-0.1-0.5-0.3-0.6l-4.9-11.9H48.7z"/>
			</g>
		</g>
	</g>
</g>
</svg>
