<?xml version="1.0" encoding="UTF-8"?>
<svg id="a" data-name="圖層 1" xmlns="http://www.w3.org/2000/svg" viewBox="0 0 80 60">
  <defs>
    <style>
      .b {
        fill: #fff;
      }

      .c {
        fill: #db0025;
      }

      .d {
        fill: #ebeae9;
        fill-rule: evenodd;
      }

      .e {
        fill: none;
        stroke: #060001;
        stroke-linecap: round;
        stroke-linejoin: round;
        stroke-width: 1.5px;
      }
    </style>
  </defs>
  <path class="b" d="M7.56,45.88H72.41v.18c0,2.33-1.89,4.23-4.23,4.23H11.62c-2.24,0-4.05-1.82-4.05-4.05v-.36h0Z"/>
  <path class="d" d="M72.44,45.77V12.05c0-1.3-1.05-2.35-2.35-2.35H9.91c-1.3,0-2.35,1.05-2.35,2.35V45.77H72.44Z"/>
  <path class="e" d="M11.35,9.71h57.3c2.09,0,3.79,1.7,3.79,3.79V46.49c0,2-1.62,3.62-3.62,3.62H11.18c-2,0-3.62-1.62-3.62-3.62V13.5c0-2.09,1.7-3.79,3.79-3.79Z"/>
  <line class="e" x1="72.41" y1="46.02" x2="7.56" y2="46.02"/>
  <g>
    <g>
      <path class="c" d="M17.55,28.13c0-.5-.02-.93-.03-1.29h1.06l.06,.54h.02c.17-.26,.53-.64,1.22-.64,.52,0,.93,.26,1.11,.68h.02c.15-.21,.33-.37,.52-.49,.22-.13,.47-.2,.77-.2,.78,0,1.36,.54,1.36,1.75v2.38h-1.22v-2.19c0-.59-.19-.92-.59-.92-.29,0-.5,.2-.58,.44-.03,.09-.05,.22-.05,.32v2.36h-1.22v-2.26c0-.51-.18-.86-.58-.86-.32,0-.51,.25-.59,.45-.04,.1-.05,.21-.05,.31v2.35h-1.22v-2.75h0Z"/>
      <path class="c" d="M25.01,26.85l.6,1.98c.07,.24,.15,.54,.2,.75h.02c.06-.21,.12-.52,.18-.75l.5-1.98h1.34l-.94,2.66c-.58,1.6-.97,2.24-1.42,2.65-.44,.38-.9,.51-1.21,.55l-.26-1.06c.16-.02,.35-.1,.54-.21,.19-.1,.4-.3,.52-.5,.04-.06,.07-.12,.07-.18,0-.04,0-.11-.06-.21l-1.48-3.69h1.39Z"/>
      <path class="c" d="M29.33,30.88l-1.78-5.56h1.38l.68,2.35c.19,.66,.36,1.29,.5,1.99h.02c.14-.67,.31-1.33,.5-1.96l.71-2.38h1.34l-1.87,5.56h-1.47Z"/>
      <path class="c" d="M34.23,25.73c0,.35-.26,.63-.68,.63s-.66-.28-.65-.63c0-.36,.26-.64,.66-.64s.66,.27,.67,.64h0Z"/>
      <rect class="c" x="32.93" y="26.85" width="1.25" height="4.03"/>
      <path class="c" d="M38.38,28.77c0-1-.5-2.01-1.8-2.01-1.4,0-2.04,1.13-2.04,2.15,0,1.26,.78,2.05,2.15,2.05,.54,0,1.05-.08,1.46-.25l-.16-.85c-.34,.11-.68,.16-1.11,.16-.59,0-1.1-.25-1.14-.77h2.6c.02-.09,.04-.28,.04-.5h0Zm-2.65-.36c.03-.34,.25-.82,.78-.82,.58,0,.71,.51,.71,.82h-1.48Z"/>
      <path class="c" d="M39.54,26.85l.32,1.65c.08,.42,.16,.87,.23,1.33h.02c.08-.46,.2-.92,.3-1.32l.43-1.66h.99l.4,1.61c.11,.45,.21,.91,.3,1.37h.02c.06-.46,.14-.92,.23-1.38l.35-1.6h1.23l-1.24,4.03h-1.18l-.38-1.42c-.1-.4-.17-.76-.26-1.25h-.02c-.07,.5-.16,.87-.26,1.25l-.4,1.42h-1.18l-1.17-4.03h1.28Z"/>
      <path class="c" d="M47.58,27.89v-.02c.63-.23,.92-.69,.92-1.19s-.28-.88-.67-1.09c-.4-.24-.87-.31-1.64-.31-.63,0-1.29,.05-1.63,.12v5.46c.28,.04,.74,.08,1.36,.08,1.11,0,1.78-.18,2.19-.5,.35-.28,.58-.68,.58-1.18,0-.72-.47-1.2-1.11-1.37h0Zm-1.77-1.66c.11-.02,.26-.03,.54-.03,.57,0,.89,.22,.89,.64s-.36,.68-1.02,.68h-.41v-1.29Zm.49,3.78c-.21,0-.36,0-.49-.02v-1.57h.43c.63,0,1.13,.22,1.13,.78s-.5,.8-1.07,.8Z"/>
      <path class="c" d="M51.06,26.76c-1.29,0-2.15,.83-2.15,2.14s.91,2.08,2.09,2.08c1.08,0,2.13-.68,2.13-2.15,0-1.21-.82-2.06-2.06-2.06Zm-.03,3.32c-.54,0-.82-.52-.82-1.21,0-.59,.22-1.21,.82-1.21,.57,0,.8,.61,.8,1.21,0,.73-.31,1.21-.8,1.21Z"/>
      <path class="c" d="M56.85,29.9v-1.4c0-.95-.43-1.74-1.77-1.74-.73,0-1.29,.2-1.57,.36l.23,.81c.26-.16,.7-.3,1.11-.3,.62,0,.73,.3,.73,.52v.06c-1.43,0-2.37,.5-2.37,1.54,0,.64,.49,1.24,1.3,1.24,.48,0,.89-.17,1.16-.5h.02l.07,.4h1.13c-.04-.22-.06-.59-.06-.98h0Zm-1.22-.49c0,.07,0,.15-.02,.21-.08,.26-.34,.46-.65,.46-.28,0-.5-.16-.5-.48,0-.49,.51-.64,1.17-.64v.44h0Z"/>
      <path class="c" d="M57.43,28.18c0-.59-.02-.98-.03-1.33h1.08l.04,.74h.03c.21-.59,.7-.83,1.09-.83,.12,0,.17,0,.26,.02v1.18c-.09-.02-.2-.03-.34-.03-.46,0-.78,.25-.86,.64-.02,.08-.02,.18-.02,.28v2.05h-1.25v-2.71h0Z"/>
      <path class="c" d="M63.99,29.68v-4.65h-1.25v2.19h-.02c-.18-.28-.57-.45-1.06-.45-.97,0-1.81,.78-1.81,2.14,0,1.25,.77,2.07,1.72,2.07,.52,0,1.01-.23,1.26-.68h.02l.06,.59h1.11c-.02-.27-.03-.75-.03-1.2h0Zm-1.25-.59c0,.11,0,.2-.03,.29-.07,.36-.36,.6-.73,.6-.52,0-.86-.43-.86-1.11,0-.64,.3-1.15,.87-1.15,.39,0,.66,.28,.73,.62,0,.07,.02,.16,.02,.22v.53h0Z"/>
      <path class="c" d="M66.44,25.27c-.08-.14-.19-.25-.34-.33-.14-.08-.29-.12-.46-.12s-.32,.04-.46,.12-.25,.19-.33,.34c-.08,.14-.12,.29-.12,.46s.04,.31,.12,.45,.19,.25,.33,.34,.3,.13,.46,.13,.32-.04,.47-.13,.25-.2,.33-.34c.08-.14,.12-.29,.12-.45s-.04-.32-.12-.46h0Zm-.15,.83c-.07,.12-.16,.21-.27,.27-.11,.07-.24,.1-.37,.1s-.25-.03-.37-.1-.21-.16-.27-.27-.1-.24-.1-.37,.03-.25,.1-.37,.16-.21,.27-.27c.11-.07,.24-.1,.37-.1s.25,.03,.37,.1,.21,.16,.27,.27c.07,.11,.1,.24,.1,.37s-.03,.25-.1,.37Z"/>
      <path class="c" d="M65.84,25.8c.12-.05,.17-.15,.17-.28,0-.12-.03-.2-.1-.26-.07-.06-.18-.08-.32-.08h-.32v1.11h.28v-.41h.06l.22,.41h.31l-.29-.49h0Zm-.14-.16s-.06,.03-.12,.03h-.04v-.29h.04c.06,0,.1,.01,.12,.03,.02,.02,.03,.06,.03,.11s-.01,.09-.03,.12h0Z"/>
    </g>
    <path class="c" d="M16.16,32.92c-1.51,0-2.75-1.23-2.75-2.75,0-.91,.45-1.75,1.18-2.26-.07-.27-.1-.54-.1-.82,0-1.86,1.51-3.37,3.37-3.37,.24,0,.49,.03,.72,.08,.67-.82,1.66-1.3,2.73-1.3,1.94,0,3.53,1.58,3.53,3.53h-1.12c0-1.33-1.08-2.41-2.41-2.41-.83,0-1.59,.42-2.04,1.12l-.24,.38-.42-.15c-.24-.09-.5-.13-.76-.13-1.24,0-2.24,1.01-2.24,2.24,0,.3,.06,.59,.17,.86l.21,.5-.5,.22c-.59,.26-.97,.84-.97,1.48,0,.9,.73,1.62,1.62,1.62,.03,0,.06,0,.08,0h5v1.12h-4.95s-.08,0-.13,0h0Z"/>
  </g>
</svg>