<svg id="Layer_1" data-name="Layer 1" xmlns="http://www.w3.org/2000/svg" viewBox="0 0 85.04 85.04"><defs><style>.cls-1{fill:#404041;}.cls-2{fill:#415695;}</style></defs><path class="cls-1" d="M22.62,34.91h-1V30A4.06,4.06,0,0,1,25.68,26h4.89v1H25.68A3.06,3.06,0,0,0,22.62,30Z"/><path class="cls-1" d="M30.57,67.76H25.68a4.06,4.06,0,0,1-4.06-4.06V58.81h1V63.7a3.06,3.06,0,0,0,3.06,3.06h4.89Z"/><path class="cls-1" d="M59.36,67.76H54.47v-1h4.89a3.06,3.06,0,0,0,3.06-3.06V58.81h1V63.7A4.06,4.06,0,0,1,59.36,67.76Z"/><path class="cls-1" d="M63.42,34.91h-1V30A3.06,3.06,0,0,0,59.36,27H54.47V26h4.89A4.06,4.06,0,0,1,63.42,30Z"/><path class="cls-1" d="M42.52,56.6a9.74,9.74,0,1,1,9.74-9.74A9.75,9.75,0,0,1,42.52,56.6Zm0-18.48a8.74,8.74,0,1,0,8.74,8.74A8.75,8.75,0,0,0,42.52,38.12Z"/><path class="cls-1" d="M42.52,43.49a3.32,3.32,0,0,0-1,.14,1.47,1.47,0,0,1,.2.72,1.43,1.43,0,0,1-1.44,1.43,1.39,1.39,0,0,1-.87-.3,3.37,3.37,0,1,0,3.07-2"/><path class="cls-2" d="M42.52,50.73a3.87,3.87,0,0,1-3.87-3.87A3.79,3.79,0,0,1,39,45.27l.26-.58.51.39a.9.9,0,0,0,.56.2.94.94,0,0,0,.94-.93.92.92,0,0,0-.14-.47l-.32-.55.61-.18A3.82,3.82,0,0,1,42.52,43a3.87,3.87,0,0,1,0,7.74Zm-2.79-4.54a3,3,0,0,0-.08.67A2.87,2.87,0,1,0,42.22,44a1.39,1.39,0,0,1,0,.35,1.93,1.93,0,0,1-1.94,1.93A2,2,0,0,1,39.73,46.19Z"/><path class="cls-1" d="M42.52,57.2C34,57.2,27.19,47.55,26.9,47.14l-.19-.28.19-.29c.29-.41,7.06-10,15.62-10s15.33,9.64,15.61,10l.2.29-.2.28C57.85,47.55,51.08,57.2,42.52,57.2ZM27.93,46.86c1.19,1.59,7.35,9.34,14.59,9.34s13.4-7.75,14.59-9.34c-1.19-1.6-7.35-9.34-14.59-9.34S29.12,45.26,27.93,46.86Z"/></svg>
