<?xml version="1.0" encoding="utf-8"?>
<!-- Generator: Adobe Illustrator 24.1.2, SVG Export Plug-In . SVG Version: 6.00 Build 0)  -->
<svg version="1.1" id="圖層_1" xmlns="http://www.w3.org/2000/svg" xmlns:xlink="http://www.w3.org/1999/xlink" x="0px" y="0px"
	 viewBox="0 0 80 60" style="enable-background:new 0 0 80 60;" xml:space="preserve">
<style type="text/css">
	.st0{fill:#555555;}
	.st1{fill:#F1F1F1;}
	.st2{fill:#555555;stroke:#555555;stroke-miterlimit:10;}
	.st3{fill:#555555;stroke:#555555;stroke-width:1.2;stroke-miterlimit:10;}
</style>
<path class="st0" d="M5.5,23.9h69c1,0,1.7,0.8,1.7,1.7v21.1c0,1-0.8,1.7-1.7,1.7h-69c-1,0-1.7-0.8-1.7-1.7V25.6
	C3.7,24.6,4.4,23.9,5.5,23.9z"/>
<path class="st0" d="M50.3,23.2c2.8,0,5.4,1,7.4,2.6l1.3-1.5c-1.9-2-5.7-3.1-8.7-3.1s-6.8,1.2-8.7,3.2l1.3,1.4
	C44.9,24.2,47.5,23.2,50.3,23.2z"/>
<rect x="5.8" y="25.9" class="st1" width="68.4" height="20.6"/>
<rect x="7.9" y="47.7" class="st0" width="64.1" height="4.4"/>
<rect x="9.5" y="48.3" class="st1" width="60.8" height="1.9"/>
<g>
	<path class="st0" d="M8.6,28.4h19.3c0.3,0,0.5,0.3,0.5,0.6v2.8c0,0.3-0.2,0.6-0.5,0.6H8.6c-0.3,0-0.5-0.3-0.5-0.6V29
		C8.1,28.6,8.3,28.4,8.6,28.4z"/>
	<rect x="9.5" y="29.5" class="st1" width="17.5" height="1.7"/>
</g>
<rect x="9.5" y="40.3" class="st1" width="17.5" height="1.2"/>
<path class="st1" d="M59.2,27.6c-3.5-4.9-10.4-6-15.3-2.5c-1,0.7-1.8,1.5-2.5,2.5H59.2z"/>
<path class="st1" d="M50.3,24.4c6.1,0,11,4.9,11,11s-4.9,11-11,11s-11-4.9-11-11l0,0l0,0C39.3,29.3,44.2,24.4,50.3,24.4L50.3,24.4
	 M50.3,22.7c-6.9,0-12.7,5.7-12.7,12.6S43.3,48,50.2,48s12.7-5.7,12.7-12.6l0,0l0,0C62.9,28.5,57.2,22.8,50.3,22.7z"/>
<path class="st2" d="M50.3,30.4c2.8,0,5.1,2.3,5.1,5.1s-2.3,5.1-5.1,5.1s-5.1-2.3-5.1-5.1l0,0l0,0C45.2,32.7,47.5,30.4,50.3,30.4
	 M50.3,29.4c-3.4,0-6.1,2.7-6.1,6.1s2.7,6.1,6.1,6.1c3.4,0,6.1-2.7,6.1-6.1l0,0l0,0C56.4,32,53.7,29.4,50.3,29.4z"/>
<path class="st3" d="M50.3,26c5.2,0,9.5,4.3,9.5,9.5S55.5,45,50.3,45s-9.5-4.3-9.5-9.5l0,0C40.8,30.3,45,26,50.3,26L50.3,26
	 M50.3,25c-5.8,0-10.5,4.7-10.5,10.4s4.7,10.5,10.5,10.5c5.7,0,10.4-4.6,10.4-10.3v-0.1l0,0c0.1-5.7-4.5-10.4-10.2-10.5
	C50.4,25,50.4,25,50.3,25z"/>
<g>
	<path class="st0" d="M8.6,34.3h19.3c0.3,0,0.5,0.3,0.5,0.6v2.8c0,0.3-0.2,0.6-0.5,0.6H8.6c-0.3,0-0.5-0.3-0.5-0.6v-2.8
		C8.1,34.5,8.3,34.3,8.6,34.3z"/>
	<rect x="9.5" y="35.5" class="st1" width="17.5" height="1.7"/>
</g>
<g>
	<path class="st0" d="M8.6,40.3h19.3c0.3,0,0.5,0.3,0.5,0.6v2.8c0,0.3-0.2,0.6-0.5,0.6H8.6c-0.3,0-0.5-0.3-0.5-0.6v-2.8
		C8.1,40.5,8.3,40.3,8.6,40.3z"/>
	<rect x="9.5" y="41.5" class="st1" width="17.5" height="1.7"/>
</g>
<path class="st0" d="M55.5,46.8c-1.6,0.8-3.4,1.3-5.4,1.3c-1.9,0-3.6-0.5-5.2-1.3l-3.3-0.3l-0.1,0.1c1.9,2.1,5.7,3.2,8.7,3.2
	s6.8-1.2,8.7-3.2l-0.1-0.1L55.5,46.8z"/>
</svg>
