<svg id="Layer_1" data-name="Layer 1" xmlns="http://www.w3.org/2000/svg" viewBox="0 0 85.04 85.04"><defs><style>.cls-1{fill:#404041;}</style></defs><path class="cls-1" d="M72.94,29.54v-1H65.19L44.07,21.13a1.91,1.91,0,0,0,.08-.54,2,2,0,1,0-4,0,2,2,0,0,0,.08.55l-20.63,7.4H11.83v1h3.63V59.43H11.83v1H41.89v5.19a2,2,0,1,0,1,0V60.43H72.94v-1H69.32V29.54Zm-29.54,38a1,1,0,1,1-1-1A1,1,0,0,1,43.4,67.56Zm-1.26-48a1,1,0,1,1-1,1A1,1,0,0,1,42.14,19.58ZM40.73,22a2,2,0,0,0,1.41.58A2,2,0,0,0,43.56,22l18.61,6.52H22.54ZM16.46,59.43V29.59h.18l-.11,0H68.31l-.12,0h.13V59.43Z"/></svg>
