<svg id="Layer_1" data-name="Layer 1" xmlns="http://www.w3.org/2000/svg" viewBox="0 0 85.04 85.04"><defs><style>.cls-1{fill:#404041;}.cls-2{fill:#415695;}</style></defs><path class="cls-1" d="M61.15,60.26a.5.5,0,0,1,0-1L64,59.1a3.73,3.73,0,0,0,3.74-3.72V30.93A3.73,3.73,0,0,0,64,27.21H21a3.72,3.72,0,0,0-3.71,3.72V55.38A3.72,3.72,0,0,0,21,59.1h24.9a.5.5,0,0,1,.5.5.5.5,0,0,1-.5.5H21a4.72,4.72,0,0,1-4.71-4.72V30.93A4.72,4.72,0,0,1,21,26.21H64a4.72,4.72,0,0,1,4.72,4.72V55.38A4.72,4.72,0,0,1,64,60.1l-2.82.16Z"/><path class="cls-2" d="M47.05,48.51a.51.51,0,0,1-.43-.25,4.92,4.92,0,0,1,2.13-7,.49.49,0,0,1,.66.23.5.5,0,0,1-.24.67,3.93,3.93,0,0,0-1.69,5.55.5.5,0,0,1-.17.69A.59.59,0,0,1,47.05,48.51Z"/><path class="cls-2" d="M45.06,50.65a.5.5,0,0,1-.4-.19,7.77,7.77,0,0,1,4.17-12.23.5.5,0,0,1,.61.36.49.49,0,0,1-.35.61,6.76,6.76,0,0,0-3.63,10.65.51.51,0,0,1-.1.7A.47.47,0,0,1,45.06,50.65Z"/><path class="cls-2" d="M56.64,50.65a.49.49,0,0,1-.4-.8,6.71,6.71,0,0,0,1.39-4.11,6.78,6.78,0,0,0-5-6.54.5.5,0,1,1,.25-1,7.79,7.79,0,0,1,5.77,7.51A7.69,7.69,0,0,1,57,50.46.48.48,0,0,1,56.64,50.65Z"/><path class="cls-2" d="M54.68,48.44a.47.47,0,0,1-.25-.07.5.5,0,0,1-.18-.68,3.91,3.91,0,0,0-1.73-5.49.5.5,0,1,1,.43-.9,4.94,4.94,0,0,1,2.82,4.44,5,5,0,0,1-.65,2.45A.5.5,0,0,1,54.68,48.44Z"/><path class="cls-1" d="M59.41,54.13a1.9,1.9,0,0,0-.53,0A2.23,2.23,0,0,0,56.82,52a1.94,1.94,0,0,0-.59.06,2.21,2.21,0,0,0-2.06-1.71,2.48,2.48,0,0,0-1.17.25V46.48a2.21,2.21,0,0,0-2-2.24,2.15,2.15,0,0,0-2.26,2.15v10c-1.35-2-2.44-2.72-3.13-2.92a1.81,1.81,0,0,0-1.7.36,1.92,1.92,0,0,0-.61,1.84,3.19,3.19,0,0,0,.64,1.44c2.21,2.78,3.9,7.8,4.52,9.82a6.5,6.5,0,0,1,.28,1.86v.7a1.12,1.12,0,0,0,1.12,1.13h8.41a1.13,1.13,0,0,0,1.13-1.13v-1.2a2.25,2.25,0,0,1,.32-1.16l1.21-2a4.1,4.1,0,0,0,.58-2.1v-6.7A2.24,2.24,0,0,0,59.41,54.13Zm1.06,8.93A3.16,3.16,0,0,1,60,64.64l-1.22,2a3.32,3.32,0,0,0-.46,1.68v1.2a.12.12,0,0,1-.12.12H49.82a.12.12,0,0,1-.12-.12v-.7a7.09,7.09,0,0,0-.32-2.15c-.64-2.09-2.38-7.24-4.69-10.16a2.17,2.17,0,0,1-.43-.94c-.06-.46,0-.74.24-.92a.84.84,0,0,1,.54-.22,1.38,1.38,0,0,1,.26,0c.37.11,1.4.61,2.84,3A1.08,1.08,0,0,0,49,58a.66.66,0,0,0,.66-.66V46.39a1.13,1.13,0,0,1,.36-.83,1.11,1.11,0,0,1,.85-.31A1.2,1.2,0,0,1,52,46.48v8.86a.51.51,0,0,0,1,0V52.28a.84.84,0,0,1,.23-.61,1.26,1.26,0,0,1,.92-.3,1.22,1.22,0,0,1,1.14,1.21v4a.5.5,0,0,0,.5.5.5.5,0,0,0,.51-.5V53.11a1,1,0,0,1,.48-.09,1.22,1.22,0,0,1,1.1,1.22v3.69a.5.5,0,0,0,.5.5.51.51,0,0,0,.51-.5v-2.7a1,1,0,0,1,.48-.09h0a1.23,1.23,0,0,1,1.1,1.22Z"/></svg>
