<svg id="Layer_1" data-name="Layer 1" xmlns="http://www.w3.org/2000/svg" viewBox="0 0 85.04 85.04"><defs><style>.cls-1{fill:#404041;}.cls-2{fill:#415695;}</style></defs><path class="cls-1" d="M45.79,32.45H39.25a2.9,2.9,0,0,1-2.89-2.89v-.21a2.9,2.9,0,0,1,2.89-2.89h6.54a2.9,2.9,0,0,1,2.89,2.89v.21A2.9,2.9,0,0,1,45.79,32.45Zm-6.54-4.84a1.74,1.74,0,0,0-1.74,1.74v.21a1.74,1.74,0,0,0,1.74,1.74h6.54a1.74,1.74,0,0,0,1.74-1.74v-.21a1.74,1.74,0,0,0-1.74-1.74Z"/><polygon class="cls-2" points="42.52 34.67 42.52 50.91 49.72 36.61 46.75 35.05 42.52 34.67"/><path class="cls-1" d="M42.52,67.55A16.73,16.73,0,1,1,59.25,50.82,16.75,16.75,0,0,1,42.52,67.55Zm0-32.3A15.58,15.58,0,1,0,58.1,50.82,15.59,15.59,0,0,0,42.52,35.25Z"/><path class="cls-1" d="M42.52,41.5a.58.58,0,0,1-.58-.58V37.5a.58.58,0,0,1,1.16,0v3.42A.58.58,0,0,1,42.52,41.5Z"/><path class="cls-1" d="M42.52,64.72a.57.57,0,0,1-.58-.57V60.72a.58.58,0,0,1,1.16,0v3.43A.57.57,0,0,1,42.52,64.72Z"/><path class="cls-1" d="M55.85,51.4H52.42a.58.58,0,1,1,0-1.15h3.43a.58.58,0,0,1,0,1.15Z"/><path class="cls-1" d="M32.62,51.4H29.19a.58.58,0,0,1,0-1.15h3.43a.58.58,0,1,1,0,1.15Z"/><path class="cls-1" d="M41.28,53.66a.54.54,0,0,1-.27-.07.57.57,0,0,1-.23-.78l7.27-13.5a.58.58,0,0,1,.78-.24.57.57,0,0,1,.23.78L41.79,53.36A.57.57,0,0,1,41.28,53.66Z"/></svg>
