<?xml version="1.0" encoding="utf-8"?>
<!-- Generator: Adobe Illustrator 26.0.3, SVG Export Plug-In . SVG Version: 6.00 Build 0)  -->
<svg version="1.1" id="Layer_1" xmlns="http://www.w3.org/2000/svg" xmlns:xlink="http://www.w3.org/1999/xlink" x="0px" y="0px"
	 viewBox="0 0 85 85" style="enable-background:new 0 0 85 85;" xml:space="preserve">
<style type="text/css">
	.st0{fill:#3E528D;}
	.st1{fill:#404041;}
</style>
<path class="st0" d="M40.6,23v1.3c0,0.2-0.2,0.4-0.4,0.4h-1.1c-0.2,0-0.4-0.2-0.4-0.4V23c0-0.2,0.2-0.4,0.4-0.4h1.1
	C40.4,22.6,40.6,22.8,40.6,23z"/>
<path class="st0" d="M43.4,23v1.3c0,0.2-0.2,0.4-0.4,0.4H42c-0.2,0-0.4-0.2-0.4-0.4V23c0-0.2,0.2-0.4,0.4-0.4h1.1
	C43.3,22.6,43.4,22.8,43.4,23z"/>
<path class="st0" d="M46.3,23v1.3c0,0.2-0.2,0.4-0.4,0.4h-1.1c-0.2,0-0.4-0.2-0.4-0.4V23c0-0.2,0.2-0.4,0.4-0.4h1.1
	C46.1,22.6,46.3,22.8,46.3,23z"/>
<path class="st1" d="M49.8,29h-0.6v-6.9c0-1.2-1.5-2.3-3.4-2.3h-6.6c-1.9,0-3.4,1-3.4,2.3V29h-0.6c-0.9,0-1.6,0.7-1.6,1.6v15.5
	c0,2.2,1.8,4,4,4h2.3v21.7h1.2V50.2h2.7v21.7h1.2V50.2h2.3c2.2,0,4-1.8,4-4V30.6C51.5,29.7,50.7,29,49.8,29z M37,22.1
	c0-0.5,1-1.1,2.2-1.1h6.6c1.2,0,2.2,0.6,2.2,1.1v1c0,0.5-1,1-2.2,1h-6.6c-1.2,0-2.2-0.6-2.2-1V22.1z M37,24.8
	c0.7,0.4,1.4,0.5,2.2,0.5h6.6c0.8,0,1.5-0.2,2.2-0.5V29H37V24.8z M50.2,46.1c0,1.6-1.3,2.8-2.8,2.8h-9.8c-1.6,0-2.8-1.3-2.8-2.8
	V30.6c0-0.2,0.2-0.4,0.4-0.4c0,0,0,0,0,0h14.7c0.2,0,0.4,0.2,0.4,0.4V46.1z"/>
</svg>
