<?xml version="1.0" encoding="utf-8"?>
<!-- Generator: Adobe Illustrator 24.1.2, SVG Export Plug-In . SVG Version: 6.00 Build 0)  -->
<svg version="1.1" id="圖層_1" xmlns="http://www.w3.org/2000/svg" xmlns:xlink="http://www.w3.org/1999/xlink" x="0px" y="0px"
	 viewBox="0 0 80 60" style="enable-background:new 0 0 80 60;" xml:space="preserve">
<style type="text/css">
	.st0{fill-rule:evenodd;clip-rule:evenodd;fill:#555555;}
	.st1{fill:#F1F1F1;}
	.st2{fill:#555555;}
	.st3{display:none;}
	.st4{display:inline;fill-rule:evenodd;clip-rule:evenodd;fill:#555555;}
	.st5{display:inline;fill:#F1F1F1;}
	.st6{display:inline;fill:#555555;}
</style>
<g id="圖層_1_1_">
	<path class="st0" d="M12.8,13.8H66c0.8,0,1.4,0.6,1.4,1.3c0,0,0,0,0,0.1v35.2c0,0.8-0.6,1.4-1.3,1.4c0,0,0,0-0.1,0H12.8
		c-0.8,0-1.4-0.6-1.4-1.3c0,0,0,0,0-0.1V15.2C11.4,14.4,12,13.8,12.8,13.8L12.8,13.8z"/>
	<rect x="13.4" y="15.8" class="st1" width="52" height="34"/>
	<path class="st2" d="M52.6,35.5L52.6,35.5l-0.7,0.1L51.4,35c-0.1-0.1-0.2-0.2-0.3-0.3c-0.6-0.4-1.3-0.7-2.1-0.6l-0.6,0.2V34l0,0
		l-2.7-7.6c-0.4-1-0.9-1-1.4-0.8c-0.6,0.1-1,0.7-0.9,1.3c0,0.1,0,0,0,0.1l3,11c0,0.1,0,0.2,0,0.3c0,0.6-0.1,1.1-0.5,1.6
		c-0.1,0.1-0.2,0.1-0.3,0.2c-0.5,0.1-1.1-0.1-1.5-0.3c-0.7-0.6-1.2-1.2-1.7-2c-0.3-0.4-0.5-0.7-0.8-1.1c-0.6-0.5-1.8-0.9-2.5-0.3
		c-0.2,0.2-0.4,0.7-0.2,1c0.4,0.4,0.7,0.7,1,1.1c0.2,0.3,0.4,0.7,0.5,1.1c0.1,0.3,0.2,0.9,0.4,1c0.2,0.2,0.4,0.5,0.6,0.8
		c0.5,0.5,0.9,1,1.2,1.6c0.7,0.9,1.1,2.1,1.9,3c0.9,1.1,2,1.9,3.3,2.5c0.5,0.2,0.9,0.6,1.2,1l0.7,2.2l9.6-0.8l-1.1-3.5l0,0
		c0.1-0.5,0.2-1,0.3-1.6c0.1-0.4,0.1-0.8,0.1-1.2l-0.2-3.4c0-0.2,0-0.4,0-0.6c0-0.6-0.5-2.3-1.8-2.3l0,0c-0.4-0.7-0.9-1.3-1.5-1.8
		c-0.4-0.5-1.3-0.8-2.3-1"/>
	<path class="st2" d="M44.1,19.5c-4.1,0.2-7.2,3.7-7,7.8c0.2,3.8,3.3,6.9,7.1,7l-0.2-1c-3.5-0.3-6.2-3.4-5.9-6.9s3.4-6.2,6.9-5.9
		s6.2,3.4,5.9,6.9c-0.1,1.7-1,3.3-2.3,4.4l0.4,1c3.2-2.5,3.8-7.2,1.3-10.4C48.9,20.4,46.5,19.4,44.1,19.5"/>
	<path class="st2" d="M43.3,30.4c-0.4-0.2-0.8-0.4-1.2-0.7c-1.5-1.4-1.6-3.7-0.3-5.2l0,0c0.6-0.7,1.6-1.2,2.5-1.2
		c2-0.1,3.8,1.4,3.9,3.5c0.1,0.8-0.2,1.7-0.7,2.4l0.5,1.1l0.1-0.1l0,0c1.8-2,1.6-5-0.4-6.7l0,0c-2-1.8-5-1.6-6.8,0.4
		c-0.8,0.9-1.3,2.2-1.2,3.5s0.7,2.5,1.6,3.3c0.6,0.6,1.4,1,2.2,1.1L43.3,30.4z"/>
</g>
<g id="圖層_2_1_" class="st3">
	<path class="st4" d="M13.9,11.9h53.2c0.8,0,1.4,0.6,1.4,1.4v35.2c0,0.8-0.6,1.4-1.4,1.4H13.9c-0.8,0-1.4-0.6-1.4-1.4V13.3
		C12.5,12.5,13.1,11.9,13.9,11.9z"/>
	<rect x="14.5" y="13.9" class="st5" width="52" height="34"/>
	<path class="st4" d="M50.8,17.2c-5.3,0-9.7,4.3-9.7,9.7c0,5.3,4.3,9.7,9.7,9.7c5.3,0,9.6-4.3,9.7-9.6
		C60.5,21.6,56.2,17.2,50.8,17.2C50.9,17.2,50.8,17.2,50.8,17.2z M50.8,35c-4.5,0-8.1-3.7-8.1-8.1s3.7-8.1,8.1-8.1s8.1,3.7,8.1,8.1
		l0,0C58.9,31.4,55.3,35,50.8,35z"/>
	<path class="st4" d="M50.8,21c-3.3,0-5.9,2.6-5.9,5.9s2.6,5.9,5.9,5.9c3.3,0,5.8-2.6,5.9-5.8C56.8,23.6,54.1,21,50.8,21
		C50.9,21,50.8,21,50.8,21z M50.8,31.8c-2.7,0-4.9-2.2-4.9-4.9s2.2-4.9,4.9-4.9s4.9,2.2,4.9,4.9l0,0C55.8,29.7,53.6,31.8,50.8,31.8z
		"/>
	<circle class="st6" cx="50.7" cy="26.4" r="1.7"/>
	<path class="st6" d="M57.4,35.5L57.4,35.5h-0.6l-0.4-0.6c-0.1-0.1-0.1-0.2-0.2-0.2c-0.5-0.4-1.1-0.6-1.7-0.6L54,34.2l0,0l0,0
		l-2-6.7c-0.3-0.9-0.7-0.8-1.1-0.7c0,0-0.9,0.2-0.7,1.2l2,9.3c0,0.1,0,0.2,0,0.3c0,0.4-0.1,0.8-0.4,1.2c-0.1,0.1-0.2,0.2-0.3,0.2
		c-0.5,0.1-1,0-1.4-0.3c-0.5-0.4-0.9-1.2-1.3-1.7c-0.2-0.3-0.4-0.7-0.7-0.9c-0.5-0.5-1.5-0.8-2-0.3c-0.2,0.2-0.4,0.6-0.2,0.8
		c0.3,0.3,0.6,0.7,0.8,1s0.3,0.6,0.4,0.9c0.1,0.2,0.1,0.7,0.3,0.9c0.2,0.1,0.3,0.5,0.4,0.7c0.3,0.4,0.7,0.9,0.9,1.4
		c0.6,0.8,0.8,1.8,1.5,2.6c0.8,0.9,1.6,1.7,2.7,2.3c0.4,0.2,0.7,0.5,1,0.9l0.4,1.9l8.1-0.2l-0.8-3l0,0c0.1-0.4,0.2-0.9,0.3-1.3
		c0.1-0.3,0.1-0.7,0.1-1c0-0.9,0-1.8,0-2.8c0-0.2,0-0.3,0-0.5c0.1-0.5-0.3-2-1.4-2l0,0c-0.3-0.6-0.7-1.1-1.1-1.6
		C58.9,36,58.2,35.6,57.4,35.5"/>
</g>
</svg>
