<?xml version="1.0" encoding="UTF-8"?>
<svg id="a" data-name="圖層 1" xmlns="http://www.w3.org/2000/svg" viewBox="0 0 80 60">
  <defs>
    <style>
      .b, .c {
        stroke-width: 1.12px;
      }

      .b, .c, .d, .e, .f, .g {
        stroke-linejoin: round;
      }

      .b, .c, .e, .f, .g {
        stroke-linecap: round;
      }

      .b, .d, .e, .f {
        stroke: #060001;
      }

      .b, .e {
        fill: #fff;
      }

      .h {
        fill: #db0025;
      }

      .c, .d, .f, .g {
        fill: none;
      }

      .c, .g {
        stroke: #db0025;
      }

      .d {
        stroke-linecap: square;
      }

      .d, .e, .f, .g {
        stroke-width: 1.68px;
      }

      .i {
        fill: #ebeae9;
        fill-rule: evenodd;
      }
    </style>
  </defs>
  <path class="i" d="M51.45,45.34s-2.24-2.24-2.24-3.73v-6.16c0-.8,.85-1.31,1.56-.96,.82,.4,1.42,1.21,1.42,2.6v-8.89c0-.11,.01-.21,.03-.31,0-.03,.02-.06,.03-.1,.02-.07,.04-.13,.06-.19,0-.02,.02-.03,.02-.04,.24-.5,.75-.85,1.34-.85h0s0,0,.01,0c.59,0,1.09,.36,1.33,.86,0,.01,.01,.02,.02,.03,.03,.07,.05,.13,.07,.2,0,.03,.02,.06,.03,.09,.02,.09,.03,.19,.03,.29,0,0,0,.01,0,.02v4.07c0-.11,.01-.21,.03-.31,0-.04,.02-.07,.03-.1,.02-.06,.04-.13,.06-.19,0-.02,.02-.03,.03-.05,.24-.5,.75-.85,1.34-.85,0,0,0,0,0,0,.59,0,1.1,.36,1.34,.86,0,.01,.01,.02,.02,.03,.03,.07,.05,.14,.07,.21,0,.03,.02,.05,.02,.08,.02,.1,.03,.2,.03,.31,0,0,0,0,0,0h0v1.56s0,0,0,0c0-.1,.01-.21,.03-.3,0-.04,.02-.07,.03-.1,.02-.06,.04-.13,.06-.19,0-.02,.02-.03,.03-.05,.24-.5,.74-.84,1.33-.85,0,0,0,0,0,0h0c.6,0,1.11,.35,1.35,.86,0,.01,.01,.02,.02,.03,.03,.07,.05,.14,.07,.21,0,.03,.02,.05,.02,.08,.02,.1,.03,.2,.03,.31,0,0,0,0,0,0h0v1.82c0-.82,.67-1.49,1.49-1.49s1.49,.67,1.49,1.49v1.19h.03s0,2.71,0,4.81-.45,2.97-1.47,4.09c-.09,.1-.16,.21-.23,.31l9.92-.02-.16-.69V12.45l-.31-1.28-.75-.83-59.48-.45h-.98l-1.69,.26-.71,.41-.36,.75-.32,1.25V46.17l44.63-.09c-.23-.22-.5-.45-.8-.74Z"/>
  <path class="f" d="M10.97,9.89h57.9c1.85,0,3.35,1.5,3.35,3.35V46.91c0,1.77-1.43,3.2-3.2,3.2H10.83c-1.77,0-3.2-1.43-3.2-3.2V13.23c0-1.85,1.5-3.35,3.35-3.35Z"/>
  <polygon class="h" points="52.16 28.63 51.45 27.94 51.34 26.85 51.75 25.78 52.82 25.09 54.15 25.09 55.23 25.75 55.87 26.86 55.87 27.83 55.23 28.63 54.9 27.23 53.98 26.55 53.13 26.65 52.59 27.01 52.35 27.58 52.16 28.63"/>
  <path class="g" d="M52.16,32.48c-2.2-.63-3.82-2.66-3.82-5.06,0-2.91,2.36-5.26,5.26-5.26s5.26,2.36,5.26,5.26c0,1.38-.53,2.63-1.39,3.57"/>
  <path class="g" d="M49.42,34.7c-2.52-1.45-4.22-4.17-4.22-7.28,0-4.64,3.76-8.4,8.4-8.4s8.4,3.76,8.4,8.4c0,1.88-.62,3.62-1.67,5.02"/>
  <path class="c" d="M55.27,29.1c.45-.42,.74-1.02,.74-1.68,0-1.28-1.04-2.31-2.31-2.31s-2.31,1.04-2.31,2.31c0,.75,.26,1.3,.81,1.73"/>
  <polyline class="d" points="51.45 49.79 51.45 48.32 63.38 48.32 63.38 49.79"/>
  <line class="d" x1="46.2" y1="46.04" x2="7.63" y2="46.04"/>
  <line class="d" x1="72.07" y1="46.04" x2="67.44" y2="46.04"/>
  <path class="f" d="M64.12,36.84v-1.19c0-.82-.67-1.49-1.49-1.49s-1.49,.67-1.49,1.49v-1.82h0s0,0,0,0c0-.11-.01-.21-.03-.31,0-.03-.02-.05-.02-.08-.02-.07-.04-.14-.07-.21,0-.01-.01-.02-.02-.03-.24-.51-.75-.86-1.35-.86h0s0,0,0,0c-.59,0-1.09,.35-1.33,.85,0,.02-.02,.03-.03,.05-.03,.06-.04,.12-.06,.19-.01,.03-.02,.07-.03,.1-.02,.1-.03,.2-.03,.3,0,0,0,0,0,0v-1.56h0s0,0,0,0c0-.11-.01-.21-.03-.31,0-.03-.02-.05-.02-.08-.02-.07-.04-.14-.07-.21,0-.01-.01-.02-.02-.03-.24-.51-.74-.86-1.34-.86,0,0,0,0,0,0h0c-.59,0-1.1,.35-1.34,.85,0,.02-.02,.03-.03,.05-.03,.06-.04,.12-.06,.19,0,.03-.02,.07-.03,.1-.02,.1-.03,.2-.03,.31v3.88h0v-7.94s0-.01,0-.02c0-.1-.01-.2-.03-.29,0-.03-.02-.06-.03-.09-.02-.07-.04-.14-.07-.2,0-.01-.01-.02-.02-.03-.24-.5-.74-.85-1.33-.86,0,0,0,0-.01,0h0c-.59,0-1.1,.35-1.34,.85,0,.01-.02,.03-.02,.04-.03,.06-.05,.13-.06,.19,0,.03-.02,.06-.03,.1-.02,.1-.03,.2-.03,.31v8.89c0-1.39-.6-2.19-1.42-2.6-.72-.36-1.56,.16-1.56,.96v6.16c0,1.49,2.24,3.73,2.24,3.73,1.32,1.25,1.99,1.62,1.99,2.98h8.44s-.22-1.45,.8-2.58c1.02-1.12,1.44-1.99,1.44-4.09v-4.81h0Z"/>
  <line class="e" x1="52.2" y1="37.1" x2="52.2" y2="38.87"/>
  <line class="b" x1="58.16" y1="33.62" x2="58.16" y2="37.03"/>
  <line class="e" x1="61.15" y1="34.7" x2="61.15" y2="38.11"/>
</svg>