<svg id="Layer_1" data-name="Layer 1" xmlns="http://www.w3.org/2000/svg" viewBox="0 0 85.04 85.04"><defs><style>.cls-1{fill:#404041;}.cls-2{fill:#415695;}</style></defs><rect class="cls-1" x="18.13" y="43.99" width="48.49" height="1"/><rect class="cls-1" x="42.02" y="31.44" width="1" height="27.57"/><path class="cls-1" d="M55,40.69a3,3,0,1,1,3-3A3,3,0,0,1,55,40.69Zm0-5.07a2,2,0,1,0,2,2A2,2,0,0,0,55,35.62Z"/><path class="cls-1" d="M58.76,44.5a.5.5,0,0,1-.5-.5,3.31,3.31,0,1,0-6.61,0,.5.5,0,0,1-.5.5.5.5,0,0,1-.5-.5,4.31,4.31,0,1,1,8.61,0A.5.5,0,0,1,58.76,44.5Z"/><path class="cls-1" d="M55,54.88a3,3,0,1,1,3-3A3,3,0,0,1,55,54.88Zm0-5.08a2,2,0,1,0,2,2A2,2,0,0,0,55,49.8Z"/><path class="cls-1" d="M58.76,58.68a.5.5,0,0,1-.5-.5,3.31,3.31,0,0,0-6.61,0,.5.5,0,0,1-.5.5.5.5,0,0,1-.5-.5,4.31,4.31,0,0,1,8.61,0A.5.5,0,0,1,58.76,58.68Z"/><path class="cls-1" d="M30.46,40.69a3,3,0,1,1,3-3A3,3,0,0,1,30.46,40.69Zm0-5.07a2,2,0,1,0,2,2A2,2,0,0,0,30.46,35.62Z"/><path class="cls-1" d="M34.26,44.5a.5.5,0,0,1-.5-.5,3.31,3.31,0,1,0-6.61,0,.5.5,0,0,1-.5.5.5.5,0,0,1-.5-.5,4.31,4.31,0,1,1,8.61,0A.5.5,0,0,1,34.26,44.5Z"/><path class="cls-1" d="M30.46,54.88a3,3,0,1,1,3-3A3,3,0,0,1,30.46,54.88Zm0-5.08a2,2,0,1,0,2,2A2,2,0,0,0,30.46,49.8Z"/><path class="cls-1" d="M34.26,58.68a.5.5,0,0,1-.5-.5,3.31,3.31,0,0,0-6.61,0,.5.5,0,0,1-.5.5.5.5,0,0,1-.5-.5,4.31,4.31,0,0,1,8.61,0A.5.5,0,0,1,34.26,58.68Z"/><path class="cls-1" d="M67.68,59.38V29.6H54v1H66.68V58.38H18.36V30.6H31v-1H17.36V59.38H39v6.33H32.35v1H52.69v-1H46V59.38ZM45,65.71H40V59.38h5Z"/><path class="cls-1" d="M49.32,35.05A.51.51,0,0,1,49,34.9l-2.79-2.79h-7.3l-2.8,2.79a.47.47,0,0,1-.54.11.5.5,0,0,1-.31-.46V32.11H32.78a2.27,2.27,0,0,1-2.27-2.27V22.77a2.27,2.27,0,0,1,2.27-2.26H52.26a2.27,2.27,0,0,1,2.27,2.26v7.07a2.27,2.27,0,0,1-2.27,2.27H49.82v2.44a.5.5,0,0,1-.31.46A.43.43,0,0,1,49.32,35.05ZM38.67,31.11h7.7a.52.52,0,0,1,.36.14l2.09,2.09V31.61a.5.5,0,0,1,.5-.5h2.94a1.27,1.27,0,0,0,1.27-1.27V22.77a1.27,1.27,0,0,0-1.27-1.26H32.78a1.27,1.27,0,0,0-1.27,1.26v7.07a1.27,1.27,0,0,0,1.27,1.27h2.94a.5.5,0,0,1,.5.5v1.73l2.09-2.09A.52.52,0,0,1,38.67,31.11Z"/><circle class="cls-2" cx="42.65" cy="26.44" r="0.98"/><circle class="cls-2" cx="47.53" cy="26.44" r="0.98"/><circle class="cls-2" cx="37.76" cy="26.44" r="0.98"/></svg>
